Patient4_TMGait_0pt2_01_left_10_GRF.mot
version=1
nRows=26
nColumns=19
inDegrees=no
endheader
time	F1x	F1y	F1z	M1x	M1y	M1z	F2x	F2y	F2z	M2x	M2y	M2z	EC1x	EC1y	EC1z	EC2x	EC2y	EC2z
22.22	-2.6433	-0.63727	-1.9697	-0.13833	0.92091	0.32077	-3.3395	792.0368	-44.6607	290.9261	49.0463	808.5557	-0.0592	0.0182	-0.0073	-0.0462	0.0165	0.9585
22.244	-1.8701	-0.11975	-1.291	-0.20625	0.55821	0.57347	-5.9774	805.2179	-42.3862	296.8596	47.4953	821.0822	-0.0592	0.0182	-0.0073	-0.0462	0.0165	0.9585
22.268	-1.2075	0.33271	-0.70819	-0.26636	0.24159	0.81058	-8.5282	819.48	-39.6359	303.2991	45.3671	834.2864	-0.0592	0.0182	-0.0073	-0.0462	0.0165	0.9585
22.292	-0.69409	0.698	-0.25604	-0.31676	-0.0086272	1.0152	-10.7506	832.7429	-36.648	309.3302	42.8004	846.088	-0.0592	0.0182	-0.0073	-0.0462	0.0165	0.9585
22.316	-0.3287	0.97494	0.06574	-0.3579	-0.19132	1.1832	-12.5321	842.6958	-33.7478	313.9246	40.0788	854.2691	-0.0592	0.0182	-0.0073	-0.0462	0.0165	0.9585
22.34	-0.096661	1.1683	0.27396	-0.38967	-0.31656	1.3119	-13.8708	847.5132	-31.2645	316.2471	37.5477	857.1641	-0.0592	0.0182	-0.0073	-0.0462	0.0165	0.9585
22.364	0.023454	1.2804	0.39416	-0.40972	-0.39841	1.3894	-14.8151	846.3648	-29.4449	315.8837	35.4982	854.1048	-0.0592	0.0182	-0.0073	-0.0462	0.0165	0.9585
22.388	0.059782	1.3075	0.4523	-0.41291	-0.44998	1.3963	-15.3894	839.5442	-28.3933	312.9167	34.0788	845.482	-0.0592	0.0182	-0.0073	-0.0462	0.0165	0.9585
22.412	0.040097	1.2373	0.46975	-0.39014	-0.4811	1.3094	-15.5748	828.226	-28.0605	307.8413	33.2688	832.4844	-0.0592	0.0182	-0.0073	-0.0462	0.0165	0.9585
22.436	-0.013236	1.0476	0.46142	-0.32764	-0.4977	1.1008	-15.3467	814.1037	-28.2683	301.4157	32.9077	816.7539	-0.0592	0.0182	-0.0073	-0.0462	0.0165	0.9585
22.46	-0.083689	0.70856	0.43707	-0.21024	-0.50293	0.7346	-14.7039	799.0315	-28.7619	294.495	32.7564	800.0559	-0.0592	0.0182	-0.0073	-0.0462	0.0165	0.9585
22.484	-0.15677	0.19001	0.40197	-0.024473	-0.49545	0.17122	-13.6421	784.6601	-29.2906	287.8572	32.5633	783.9316	-0.0592	0.0182	-0.0073	-0.0462	0.0165	0.9585
22.508	-0.21525	-0.53254	0.35397	0.23663	-0.46648	-0.61756	-12.1316	772.1576	-29.6868	282.0631	32.1344	769.4366	-0.0592	0.0182	-0.0073	-0.0462	0.0165	0.9585
22.532	-0.23508	-1.4567	0.28418	0.57018	-0.40018	-1.6303	-10.1424	762.092	-29.9023	277.3957	31.3841	757.0591	-0.0592	0.0182	-0.0073	-0.0462	0.0165	0.9585
22.556	-0.19055	-2.5217	0.18285	0.95252	-0.27753	-2.8066	-7.672	754.4896	-29.9955	273.8858	30.338	746.7967	-0.0592	0.0182	-0.0073	-0.0462	0.0165	0.9585
22.58	-0.054761	-3.5771	0.040705	1.3275	-0.075571	-3.9846	-4.7588	749.0562	-30.0921	271.4122	29.1128	738.3667	-0.0592	0.0182	-0.0073	-0.0462	0.0165	0.9585
22.604	0.19834	-4.3404	-0.15159	1.5922	0.22787	-4.8535	-1.4769	745.4073	-30.3347	269.8046	27.8701	731.4271	-0.0592	0.0182	-0.0073	-0.0462	0.0165	0.9585
22.628	0.59227	-4.3579	-0.39611	1.5828	0.64401	-4.9178	2.0802	743.216	-30.8307	268.9119	26.7562	725.7039	-0.0592	0.0182	-0.0073	-0.0462	0.0165	0.9585
22.652	1.1388	-2.9809	-0.6768	1.0639	1.1594	-3.4674	5.7911	742.2021	-31.6259	268.6049	25.8734	720.9694	-0.0592	0.0182	-0.0073	-0.0462	0.0165	0.9585
22.676	1.8236	0.63481	-0.94903	-0.2703	1.718	0.41933	9.5022	741.995	-32.6906	268.7313	25.2622	716.9083	-0.0592	0.0182	-0.0073	-0.0462	0.0165	0.9585
22.7	2.5874	7.4701	-1.1303	-2.7748	2.2063	7.8174	13.0411	741.9648	-33.9091	269.0498	24.884	712.9598	-0.0592	0.0182	-0.0073	-0.0462	0.0165	0.9585
22.724	3.3012	18.5024	-1.0924	-6.7993	2.4345	19.7996	16.2343	741.099	-35.097	269.1791	24.633	708.2152	-0.0592	0.0182	-0.0073	-0.0462	0.0165	0.9585
22.748	3.7347	34.4504	-0.65553	-12.5955	2.1203	37.1651	18.9212	737.9668	-36.0444	268.5743	24.3775	701.4072	-0.0592	0.0182	-0.0073	-0.0462	0.0165	0.9585
22.772	3.5822	55.494	0.38365	-20.2179	0.92963	60.1369	20.9603	730.8549	-36.5584	266.5703	23.9964	691.0438	-0.0592	0.0182	-0.0073	-0.0462	0.0165	0.9585
22.796	2.6828	81.1854	2.1904	-29.4928	-1.3756	88.2416	22.2489	718.1317	-36.4931	262.5176	23.3993	675.7425	-0.0592	0.0182	-0.0073	-0.0462	0.0165	0.9585
22.82	1.1038	110.428	4.7976	-40.0188	-4.8037	120.2625	22.7242	698.6986	-35.7698	255.9553	22.5471	654.6395	-0.0592	0.0182	-0.0073	-0.0462	0.0165	0.9585
